0
SECTION
2
HEADER
9
$INSUNITS
70
4
0
ENDSEC
0
SECTION
2
TABLES
0
TABLE
2
LTYPE
0
LTYPE
72
65
70
64
2
CONTINUOUS
3
______
73
0
40
0
0
ENDTAB
0
TABLE
2
LAYER
0
ENDTAB
0
ENDSEC
0
SECTION
2
ENTITIES
0
LINE
8
0
10
156.5
20
-72.2
11
156.5
21
-59.0417772
0
LINE
8
0
10
155.0089866
20
-57.1076281
11
137.6224946
21
-52.5322354
0
LINE
8
0
10
137.374417
20
-52.4834759
11
118.6298946
21
-50.0170914
0
LINE
8
0
10
118.3689856
20
-50
11
95.7587532
21
-50
0
LINE
8
0
10
95.2497666
20
-50.0658509
11
76.6224946
21
-54.9677646
0
LINE
8
0
10
76.374417
20
-55.0165241
11
57.625583
21
-57.4834759
0
LINE
8
0
10
57.3775054
20
-57.5322354
11
39.9910134
21
-62.1076281
0
LINE
8
0
10
38.5
20
-64.0417772
11
38.5
21
-159.5
0
LINE
8
0
10
40.5
20
-161.5
11
61.2412468
21
-161.5
0
LINE
8
0
10
61.7502334
20
-161.4341491
11
80.3775054
21
-156.5322354
0
LINE
8
0
10
80.625583
20
-156.4834759
11
99.4659701
21
-154.0044776
0
LINE
8
0
10
99.5338591
20
-153.9943568
11
114.3367268
21
-151.5272122
0
LINE
8
0
10
114.6655248
20
-151.5
11
124.8145745
21
-151.5
0
LINE
8
0
10
126.56906
20
-152.539906
11
132.0276259
21
-162.5149443
0
LINE
8
0
10
133.6078001
20
-163.5472398
11
155.2553803
21
-165.4411577
0
LINE
8
0
10
155.6451813
20
-165.5147514
11
169.2104545
21
-169.5028465
0
LINE
8
0
10
169.4915787
20
-169.6090267
11
188.3874802
21
-178.4203303
0
LINE
8
0
10
191.0453323
20
-177.4529514
11
199.244317
21
-159.8701722
0
LINE
8
0
10
198.6546482
20
-157.4424056
11
182.6080032
21
-145.0418854
0
LINE
8
0
10
181.8309502
20
-143.4602492
11
181.8008933
21
-76.1991062
0
LINE
8
0
10
179.8008935
20
-74.2
11
158.5
21
-74.2
0
ARC
8
0
10
154.5
20
-59.0417772
40
2
50
0
51
75.2564366
0
ARC
8
0
10
137.113508
20
-54.4663845
40
2
50
75.2564366
51
82.5041431
0
ARC
8
0
10
118.3689856
20
-52
40
2
50
82.5041431
51
90
0
ARC
8
0
10
95.7587532
20
-52
40
2
50
90
51
104.7435634
0
ARC
8
0
10
76.113508
20
-53.0336155
40
2
50
277.4958569
51
284.7435634
0
ARC
8
0
10
57.886492
20
-59.4663845
40
2
50
97.4958569
51
104.7435634
0
ARC
8
0
10
40.5
20
-64.0417772
40
2
50
104.7435634
51
180
0
ARC
8
0
10
40.5
20
-159.5
40
2
50
180
51
270
0
ARC
8
0
10
61.2412468
20
-159.5
40
2
50
270
51
284.7435634
0
ARC
8
0
10
80.886492
20
-158.4663845
40
2
50
97.4958569
51
104.7435634
0
ARC
8
0
10
99.2050611
20
-152.021569
40
2
50
277.4958569
51
279.4623231
0
ARC
8
0
10
114.6655248
20
-153.5
40
2
50
90
51
99.4623231
0
ARC
8
0
10
124.8145745
20
-153.5
40
2
50
28.6884709
51
90
0
ARC
8
0
10
133.7821115
20
-161.5548504
40
2
50
208.6884709
51
265.0000024
0
ARC
8
0
10
155.0810689
20
-167.4335471
40
2
50
73.6170367
51
85.0000024
0
ARC
8
0
10
168.6463421
20
-171.4216423
40
2
50
64.9999983
51
73.6170367
0
ARC
8
0
10
189.2327168
20
-176.6077148
40
2
50
244.9999983
51
334.9999983
0
ARC
8
0
10
197.4317014
20
-159.0249356
40
2
50
334.9999983
51
52.3038846
0
ARC
8
0
10
183.83095
20
-143.4593554
40
2
50
180.0256055
51
232.3038846
0
ARC
8
0
10
179.8008935
20
-76.2
40
2
50
0.0256055
51
90
0
ARC
8
0
10
158.5
20
-72.2
40
2
50
180
51
270
0
LINE
8
0
10
40.75
20
-159.25
11
59.25
21
-159.25
0
LINE
8
0
10
59.25
20
-159.25
11
59.25
21
-140.75
0
LINE
8
0
10
59.25
20
-140.75
11
40.75
21
-140.75
0
LINE
8
0
10
40.75
20
-140.75
11
40.75
21
-159.25
0
LINE
8
0
10
40.75
20
-140.25
11
59.25
21
-140.25
0
LINE
8
0
10
59.25
20
-140.25
11
59.25
21
-121.75
0
LINE
8
0
10
59.25
20
-121.75
11
40.75
21
-121.75
0
LINE
8
0
10
40.75
20
-121.75
11
40.75
21
-140.25
0
LINE
8
0
10
40.75
20
-121.25
11
59.25
21
-121.25
0
LINE
8
0
10
59.25
20
-121.25
11
59.25
21
-102.75
0
LINE
8
0
10
59.25
20
-102.75
11
40.75
21
-102.75
0
LINE
8
0
10
40.75
20
-102.75
11
40.75
21
-121.25
0
LINE
8
0
10
40.75
20
-102.25
11
59.25
21
-102.25
0
LINE
8
0
10
59.25
20
-102.25
11
59.25
21
-83.75
0
LINE
8
0
10
59.25
20
-83.75
11
40.75
21
-83.75
0
LINE
8
0
10
40.75
20
-83.75
11
40.75
21
-102.25
0
LINE
8
0
10
40.75
20
-83.25
11
59.25
21
-83.25
0
LINE
8
0
10
59.25
20
-83.25
11
59.25
21
-64.75
0
LINE
8
0
10
59.25
20
-64.75
11
40.75
21
-64.75
0
LINE
8
0
10
40.75
20
-64.75
11
40.75
21
-83.25
0
LINE
8
0
10
59.75
20
-154.25
11
78.25
21
-154.25
0
LINE
8
0
10
78.25
20
-154.25
11
78.25
21
-135.75
0
LINE
8
0
10
78.25
20
-135.75
11
59.75
21
-135.75
0
LINE
8
0
10
59.75
20
-135.75
11
59.75
21
-154.25
0
LINE
8
0
10
59.75
20
-135.25
11
78.25
21
-135.25
0
LINE
8
0
10
78.25
20
-135.25
11
78.25
21
-116.75
0
LINE
8
0
10
78.25
20
-116.75
11
59.75
21
-116.75
0
LINE
8
0
10
59.75
20
-116.75
11
59.75
21
-135.25
0
LINE
8
0
10
59.75
20
-116.25
11
78.25
21
-116.25
0
LINE
8
0
10
78.25
20
-116.25
11
78.25
21
-97.75
0
LINE
8
0
10
78.25
20
-97.75
11
59.75
21
-97.75
0
LINE
8
0
10
59.75
20
-97.75
11
59.75
21
-116.25
0
LINE
8
0
10
59.75
20
-97.25
11
78.25
21
-97.25
0
LINE
8
0
10
78.25
20
-97.25
11
78.25
21
-78.75
0
LINE
8
0
10
78.25
20
-78.75
11
59.75
21
-78.75
0
LINE
8
0
10
59.75
20
-78.75
11
59.75
21
-97.25
0
LINE
8
0
10
59.75
20
-78.25
11
78.25
21
-78.25
0
LINE
8
0
10
78.25
20
-78.25
11
78.25
21
-59.75
0
LINE
8
0
10
78.25
20
-59.75
11
59.75
21
-59.75
0
LINE
8
0
10
59.75
20
-59.75
11
59.75
21
-78.25
0
LINE
8
0
10
78.75
20
-151.75
11
97.25
21
-151.75
0
LINE
8
0
10
97.25
20
-151.75
11
97.25
21
-133.25
0
LINE
8
0
10
97.25
20
-133.25
11
78.75
21
-133.25
0
LINE
8
0
10
78.75
20
-133.25
11
78.75
21
-151.75
0
LINE
8
0
10
78.75
20
-132.75
11
97.25
21
-132.75
0
LINE
8
0
10
97.25
20
-132.75
11
97.25
21
-114.25
0
LINE
8
0
10
97.25
20
-114.25
11
78.75
21
-114.25
0
LINE
8
0
10
78.75
20
-114.25
11
78.75
21
-132.75
0
LINE
8
0
10
78.75
20
-113.75
11
97.25
21
-113.75
0
LINE
8
0
10
97.25
20
-113.75
11
97.25
21
-95.25
0
LINE
8
0
10
97.25
20
-95.25
11
78.75
21
-95.25
0
LINE
8
0
10
78.75
20
-95.25
11
78.75
21
-113.75
0
LINE
8
0
10
78.75
20
-94.75
11
97.25
21
-94.75
0
LINE
8
0
10
97.25
20
-94.75
11
97.25
21
-76.25
0
LINE
8
0
10
97.25
20
-76.25
11
78.75
21
-76.25
0
LINE
8
0
10
78.75
20
-76.25
11
78.75
21
-94.75
0
LINE
8
0
10
78.75
20
-75.75
11
97.25
21
-75.75
0
LINE
8
0
10
97.25
20
-75.75
11
97.25
21
-57.25
0
LINE
8
0
10
97.25
20
-57.25
11
78.75
21
-57.25
0
LINE
8
0
10
78.75
20
-57.25
11
78.75
21
-75.75
0
LINE
8
0
10
97.75
20
-146.75
11
116.25
21
-146.75
0
LINE
8
0
10
116.25
20
-146.75
11
116.25
21
-128.25
0
LINE
8
0
10
116.25
20
-128.25
11
97.75
21
-128.25
0
LINE
8
0
10
97.75
20
-128.25
11
97.75
21
-146.75
0
LINE
8
0
10
97.75
20
-127.75
11
116.25
21
-127.75
0
LINE
8
0
10
116.25
20
-127.75
11
116.25
21
-109.25
0
LINE
8
0
10
116.25
20
-109.25
11
97.75
21
-109.25
0
LINE
8
0
10
97.75
20
-109.25
11
97.75
21
-127.75
0
LINE
8
0
10
97.75
20
-108.75
11
116.25
21
-108.75
0
LINE
8
0
10
116.25
20
-108.75
11
116.25
21
-90.25
0
LINE
8
0
10
116.25
20
-90.25
11
97.75
21
-90.25
0
LINE
8
0
10
97.75
20
-90.25
11
97.75
21
-108.75
0
LINE
8
0
10
97.75
20
-89.75
11
116.25
21
-89.75
0
LINE
8
0
10
116.25
20
-89.75
11
116.25
21
-71.25
0
LINE
8
0
10
116.25
20
-71.25
11
97.75
21
-71.25
0
LINE
8
0
10
97.75
20
-71.25
11
97.75
21
-89.75
0
LINE
8
0
10
97.75
20
-70.75
11
116.25
21
-70.75
0
LINE
8
0
10
116.25
20
-70.75
11
116.25
21
-52.25
0
LINE
8
0
10
116.25
20
-52.25
11
97.75
21
-52.25
0
LINE
8
0
10
97.75
20
-52.25
11
97.75
21
-70.75
0
LINE
8
0
10
116.75
20
-149.25
11
135.25
21
-149.25
0
LINE
8
0
10
135.25
20
-149.25
11
135.25
21
-130.75
0
LINE
8
0
10
135.25
20
-130.75
11
116.75
21
-130.75
0
LINE
8
0
10
116.75
20
-130.75
11
116.75
21
-149.25
0
LINE
8
0
10
116.75
20
-130.25
11
135.25
21
-130.25
0
LINE
8
0
10
135.25
20
-130.25
11
135.25
21
-111.75
0
LINE
8
0
10
135.25
20
-111.75
11
116.75
21
-111.75
0
LINE
8
0
10
116.75
20
-111.75
11
116.75
21
-130.25
0
LINE
8
0
10
116.75
20
-111.25
11
135.25
21
-111.25
0
LINE
8
0
10
135.25
20
-111.25
11
135.25
21
-92.75
0
LINE
8
0
10
135.25
20
-92.75
11
116.75
21
-92.75
0
LINE
8
0
10
116.75
20
-92.75
11
116.75
21
-111.25
0
LINE
8
0
10
116.75
20
-92.25
11
135.25
21
-92.25
0
LINE
8
0
10
135.25
20
-92.25
11
135.25
21
-73.75
0
LINE
8
0
10
135.25
20
-73.75
11
116.75
21
-73.75
0
LINE
8
0
10
116.75
20
-73.75
11
116.75
21
-92.25
0
LINE
8
0
10
116.75
20
-73.25
11
135.25
21
-73.25
0
LINE
8
0
10
135.25
20
-73.25
11
135.25
21
-54.75
0
LINE
8
0
10
135.25
20
-54.75
11
116.75
21
-54.75
0
LINE
8
0
10
116.75
20
-54.75
11
116.75
21
-73.25
0
LINE
8
0
10
135.75
20
-135.25
11
154.25
21
-135.25
0
LINE
8
0
10
154.25
20
-135.25
11
154.25
21
-116.75
0
LINE
8
0
10
154.25
20
-116.75
11
135.75
21
-116.75
0
LINE
8
0
10
135.75
20
-116.75
11
135.75
21
-135.25
0
LINE
8
0
10
135.75
20
-116.25
11
154.25
21
-116.25
0
LINE
8
0
10
154.25
20
-116.25
11
154.25
21
-97.75
0
LINE
8
0
10
154.25
20
-97.75
11
135.75
21
-97.75
0
LINE
8
0
10
135.75
20
-97.75
11
135.75
21
-116.25
0
LINE
8
0
10
135.75
20
-97.25
11
154.25
21
-97.25
0
LINE
8
0
10
154.25
20
-97.25
11
154.25
21
-78.75
0
LINE
8
0
10
154.25
20
-78.75
11
135.75
21
-78.75
0
LINE
8
0
10
135.75
20
-78.75
11
135.75
21
-97.25
0
LINE
8
0
10
135.75
20
-78.25
11
154.25
21
-78.25
0
LINE
8
0
10
154.25
20
-78.25
11
154.25
21
-59.75
0
LINE
8
0
10
154.25
20
-59.75
11
135.75
21
-59.75
0
LINE
8
0
10
135.75
20
-59.75
11
135.75
21
-78.25
0
LINE
8
0
10
159.6820649
20
-139.8540853
11
178.1116668
21
-141.4664666
0
LINE
8
0
10
178.1116668
20
-141.4664666
11
179.7240481
21
-123.0368647
0
LINE
8
0
10
179.7240481
20
-123.0368647
11
161.2944462
21
-121.4244834
0
LINE
8
0
10
161.2944462
20
-121.4244834
11
159.6820649
21
-139.8540853
0
LINE
8
0
10
134.9790084
20
-161.4086103
11
153.4086103
21
-163.0209916
0
LINE
8
0
10
153.4086103
20
-163.0209916
11
155.0209916
21
-144.5913897
0
LINE
8
0
10
155.0209916
20
-144.5913897
11
136.5913897
21
-142.9790084
0
LINE
8
0
10
136.5913897
20
-142.9790084
11
134.9790084
21
-161.4086103
0
LINE
8
0
10
155.307118
20
-158.8165574
11
173.1767458
21
-163.6047098
0
LINE
8
0
10
173.1767458
20
-163.6047098
11
177.9648982
21
-145.735082
0
LINE
8
0
10
177.9648982
20
-145.735082
11
160.0952704
21
-140.9469296
0
LINE
8
0
10
160.0952704
20
-140.9469296
11
155.307118
21
-158.8165574
0
LINE
8
0
10
172.3451003
20
-168.4570454
11
189.1117944
21
-176.2754833
0
LINE
8
0
10
189.1117944
20
-176.2754833
11
196.9302323
21
-159.5087892
0
LINE
8
0
10
196.9302323
20
-159.5087892
11
180.1635382
21
-151.6903513
0
LINE
8
0
10
180.1635382
20
-151.6903513
11
172.3451003
21
-168.4570454
0
ENDSEC
0
EOF