0
SECTION
2
HEADER
9
$INSUNITS
70
4
0
ENDSEC
0
SECTION
2
TABLES
0
TABLE
2
LTYPE
0
LTYPE
72
65
70
64
2
CONTINUOUS
3
______
73
0
40
0
0
ENDTAB
0
TABLE
2
LAYER
0
ENDTAB
0
ENDSEC
0
SECTION
2
ENTITIES
0
LINE
8
0
10
40.75
20
-159.25
11
59.25
21
-159.25
0
LINE
8
0
10
59.25
20
-159.25
11
59.25
21
-140.75
0
LINE
8
0
10
59.25
20
-140.75
11
40.75
21
-140.75
0
LINE
8
0
10
40.75
20
-140.75
11
40.75
21
-159.25
0
LINE
8
0
10
40.75
20
-140.25
11
59.25
21
-140.25
0
LINE
8
0
10
59.25
20
-140.25
11
59.25
21
-121.75
0
LINE
8
0
10
59.25
20
-121.75
11
40.75
21
-121.75
0
LINE
8
0
10
40.75
20
-121.75
11
40.75
21
-140.25
0
LINE
8
0
10
40.75
20
-121.25
11
59.25
21
-121.25
0
LINE
8
0
10
59.25
20
-121.25
11
59.25
21
-102.75
0
LINE
8
0
10
59.25
20
-102.75
11
40.75
21
-102.75
0
LINE
8
0
10
40.75
20
-102.75
11
40.75
21
-121.25
0
LINE
8
0
10
40.75
20
-102.25
11
59.25
21
-102.25
0
LINE
8
0
10
59.25
20
-102.25
11
59.25
21
-83.75
0
LINE
8
0
10
59.25
20
-83.75
11
40.75
21
-83.75
0
LINE
8
0
10
40.75
20
-83.75
11
40.75
21
-102.25
0
LINE
8
0
10
40.75
20
-83.25
11
59.25
21
-83.25
0
LINE
8
0
10
59.25
20
-83.25
11
59.25
21
-64.75
0
LINE
8
0
10
59.25
20
-64.75
11
40.75
21
-64.75
0
LINE
8
0
10
40.75
20
-64.75
11
40.75
21
-83.25
0
LINE
8
0
10
59.75
20
-154.25
11
78.25
21
-154.25
0
LINE
8
0
10
78.25
20
-154.25
11
78.25
21
-135.75
0
LINE
8
0
10
78.25
20
-135.75
11
59.75
21
-135.75
0
LINE
8
0
10
59.75
20
-135.75
11
59.75
21
-154.25
0
LINE
8
0
10
59.75
20
-135.25
11
78.25
21
-135.25
0
LINE
8
0
10
78.25
20
-135.25
11
78.25
21
-116.75
0
LINE
8
0
10
78.25
20
-116.75
11
59.75
21
-116.75
0
LINE
8
0
10
59.75
20
-116.75
11
59.75
21
-135.25
0
LINE
8
0
10
59.75
20
-116.25
11
78.25
21
-116.25
0
LINE
8
0
10
78.25
20
-116.25
11
78.25
21
-97.75
0
LINE
8
0
10
78.25
20
-97.75
11
59.75
21
-97.75
0
LINE
8
0
10
59.75
20
-97.75
11
59.75
21
-116.25
0
LINE
8
0
10
59.75
20
-97.25
11
78.25
21
-97.25
0
LINE
8
0
10
78.25
20
-97.25
11
78.25
21
-78.75
0
LINE
8
0
10
78.25
20
-78.75
11
59.75
21
-78.75
0
LINE
8
0
10
59.75
20
-78.75
11
59.75
21
-97.25
0
LINE
8
0
10
59.75
20
-78.25
11
78.25
21
-78.25
0
LINE
8
0
10
78.25
20
-78.25
11
78.25
21
-59.75
0
LINE
8
0
10
78.25
20
-59.75
11
59.75
21
-59.75
0
LINE
8
0
10
59.75
20
-59.75
11
59.75
21
-78.25
0
LINE
8
0
10
78.75
20
-151.75
11
97.25
21
-151.75
0
LINE
8
0
10
97.25
20
-151.75
11
97.25
21
-133.25
0
LINE
8
0
10
97.25
20
-133.25
11
78.75
21
-133.25
0
LINE
8
0
10
78.75
20
-133.25
11
78.75
21
-151.75
0
LINE
8
0
10
78.75
20
-132.75
11
97.25
21
-132.75
0
LINE
8
0
10
97.25
20
-132.75
11
97.25
21
-114.25
0
LINE
8
0
10
97.25
20
-114.25
11
78.75
21
-114.25
0
LINE
8
0
10
78.75
20
-114.25
11
78.75
21
-132.75
0
LINE
8
0
10
78.75
20
-113.75
11
97.25
21
-113.75
0
LINE
8
0
10
97.25
20
-113.75
11
97.25
21
-95.25
0
LINE
8
0
10
97.25
20
-95.25
11
78.75
21
-95.25
0
LINE
8
0
10
78.75
20
-95.25
11
78.75
21
-113.75
0
LINE
8
0
10
78.75
20
-94.75
11
97.25
21
-94.75
0
LINE
8
0
10
97.25
20
-94.75
11
97.25
21
-76.25
0
LINE
8
0
10
97.25
20
-76.25
11
78.75
21
-76.25
0
LINE
8
0
10
78.75
20
-76.25
11
78.75
21
-94.75
0
LINE
8
0
10
78.75
20
-75.75
11
97.25
21
-75.75
0
LINE
8
0
10
97.25
20
-75.75
11
97.25
21
-57.25
0
LINE
8
0
10
97.25
20
-57.25
11
78.75
21
-57.25
0
LINE
8
0
10
78.75
20
-57.25
11
78.75
21
-75.75
0
LINE
8
0
10
97.75
20
-146.75
11
116.25
21
-146.75
0
LINE
8
0
10
116.25
20
-146.75
11
116.25
21
-128.25
0
LINE
8
0
10
116.25
20
-128.25
11
97.75
21
-128.25
0
LINE
8
0
10
97.75
20
-128.25
11
97.75
21
-146.75
0
LINE
8
0
10
97.75
20
-127.75
11
116.25
21
-127.75
0
LINE
8
0
10
116.25
20
-127.75
11
116.25
21
-109.25
0
LINE
8
0
10
116.25
20
-109.25
11
97.75
21
-109.25
0
LINE
8
0
10
97.75
20
-109.25
11
97.75
21
-127.75
0
LINE
8
0
10
97.75
20
-108.75
11
116.25
21
-108.75
0
LINE
8
0
10
116.25
20
-108.75
11
116.25
21
-90.25
0
LINE
8
0
10
116.25
20
-90.25
11
97.75
21
-90.25
0
LINE
8
0
10
97.75
20
-90.25
11
97.75
21
-108.75
0
LINE
8
0
10
97.75
20
-89.75
11
116.25
21
-89.75
0
LINE
8
0
10
116.25
20
-89.75
11
116.25
21
-71.25
0
LINE
8
0
10
116.25
20
-71.25
11
97.75
21
-71.25
0
LINE
8
0
10
97.75
20
-71.25
11
97.75
21
-89.75
0
LINE
8
0
10
97.75
20
-70.75
11
116.25
21
-70.75
0
LINE
8
0
10
116.25
20
-70.75
11
116.25
21
-52.25
0
LINE
8
0
10
116.25
20
-52.25
11
97.75
21
-52.25
0
LINE
8
0
10
97.75
20
-52.25
11
97.75
21
-70.75
0
LINE
8
0
10
116.75
20
-149.25
11
135.25
21
-149.25
0
LINE
8
0
10
135.25
20
-149.25
11
135.25
21
-130.75
0
LINE
8
0
10
135.25
20
-130.75
11
116.75
21
-130.75
0
LINE
8
0
10
116.75
20
-130.75
11
116.75
21
-149.25
0
LINE
8
0
10
116.75
20
-130.25
11
135.25
21
-130.25
0
LINE
8
0
10
135.25
20
-130.25
11
135.25
21
-111.75
0
LINE
8
0
10
135.25
20
-111.75
11
116.75
21
-111.75
0
LINE
8
0
10
116.75
20
-111.75
11
116.75
21
-130.25
0
LINE
8
0
10
116.75
20
-111.25
11
135.25
21
-111.25
0
LINE
8
0
10
135.25
20
-111.25
11
135.25
21
-92.75
0
LINE
8
0
10
135.25
20
-92.75
11
116.75
21
-92.75
0
LINE
8
0
10
116.75
20
-92.75
11
116.75
21
-111.25
0
LINE
8
0
10
116.75
20
-92.25
11
135.25
21
-92.25
0
LINE
8
0
10
135.25
20
-92.25
11
135.25
21
-73.75
0
LINE
8
0
10
135.25
20
-73.75
11
116.75
21
-73.75
0
LINE
8
0
10
116.75
20
-73.75
11
116.75
21
-92.25
0
LINE
8
0
10
116.75
20
-73.25
11
135.25
21
-73.25
0
LINE
8
0
10
135.25
20
-73.25
11
135.25
21
-54.75
0
LINE
8
0
10
135.25
20
-54.75
11
116.75
21
-54.75
0
LINE
8
0
10
116.75
20
-54.75
11
116.75
21
-73.25
0
LINE
8
0
10
135.75
20
-135.25
11
154.25
21
-135.25
0
LINE
8
0
10
154.25
20
-135.25
11
154.25
21
-116.75
0
LINE
8
0
10
154.25
20
-116.75
11
135.75
21
-116.75
0
LINE
8
0
10
135.75
20
-116.75
11
135.75
21
-135.25
0
LINE
8
0
10
135.75
20
-116.25
11
154.25
21
-116.25
0
LINE
8
0
10
154.25
20
-116.25
11
154.25
21
-97.75
0
LINE
8
0
10
154.25
20
-97.75
11
135.75
21
-97.75
0
LINE
8
0
10
135.75
20
-97.75
11
135.75
21
-116.25
0
LINE
8
0
10
135.75
20
-97.25
11
154.25
21
-97.25
0
LINE
8
0
10
154.25
20
-97.25
11
154.25
21
-78.75
0
LINE
8
0
10
154.25
20
-78.75
11
135.75
21
-78.75
0
LINE
8
0
10
135.75
20
-78.75
11
135.75
21
-97.25
0
LINE
8
0
10
135.75
20
-78.25
11
154.25
21
-78.25
0
LINE
8
0
10
154.25
20
-78.25
11
154.25
21
-59.75
0
LINE
8
0
10
154.25
20
-59.75
11
135.75
21
-59.75
0
LINE
8
0
10
135.75
20
-59.75
11
135.75
21
-78.25
0
LINE
8
0
10
159.6820649
20
-139.8540853
11
178.1116668
21
-141.4664666
0
LINE
8
0
10
178.1116668
20
-141.4664666
11
179.7240481
21
-123.0368647
0
LINE
8
0
10
179.7240481
20
-123.0368647
11
161.2944462
21
-121.4244834
0
LINE
8
0
10
161.2944462
20
-121.4244834
11
159.6820649
21
-139.8540853
0
LINE
8
0
10
134.9790084
20
-161.4086103
11
153.4086103
21
-163.0209916
0
LINE
8
0
10
153.4086103
20
-163.0209916
11
155.0209916
21
-144.5913897
0
LINE
8
0
10
155.0209916
20
-144.5913897
11
136.5913897
21
-142.9790084
0
LINE
8
0
10
136.5913897
20
-142.9790084
11
134.9790084
21
-161.4086103
0
LINE
8
0
10
155.307118
20
-158.8165574
11
173.1767458
21
-163.6047098
0
LINE
8
0
10
173.1767458
20
-163.6047098
11
177.9648982
21
-145.735082
0
LINE
8
0
10
177.9648982
20
-145.735082
11
160.0952704
21
-140.9469296
0
LINE
8
0
10
160.0952704
20
-140.9469296
11
155.307118
21
-158.8165574
0
LINE
8
0
10
172.3451003
20
-168.4570454
11
189.1117944
21
-176.2754833
0
LINE
8
0
10
189.1117944
20
-176.2754833
11
196.9302323
21
-159.5087892
0
LINE
8
0
10
196.9302323
20
-159.5087892
11
180.1635382
21
-151.6903513
0
LINE
8
0
10
180.1635382
20
-151.6903513
11
172.3451003
21
-168.4570454
0
ENDSEC
0
EOF