0
SECTION
2
HEADER
9
$INSUNITS
70
4
0
ENDSEC
0
SECTION
2
TABLES
0
TABLE
2
LTYPE
0
LTYPE
72
65
70
64
2
CONTINUOUS
3
______
73
0
40
0
0
ENDTAB
0
TABLE
2
LAYER
0
ENDTAB
0
ENDSEC
0
SECTION
2
ENTITIES
0
LINE
8
0
10
181.8362023
20
-116.7713393
11
181.8014625
21
-69.2985364
0
LINE
8
0
10
179.801463
20
-67.3
11
158.5
21
-67.3
0
LINE
8
0
10
156.5
20
-65.3
11
156.5
21
-59.0417772
0
LINE
8
0
10
155.0089866
20
-57.1076281
11
137.6224946
21
-52.5322354
0
LINE
8
0
10
137.374417
20
-52.4834759
11
118.6298946
21
-50.0170914
0
LINE
8
0
10
118.3689856
20
-50
11
95.7587532
21
-50
0
LINE
8
0
10
95.2497666
20
-50.0658509
11
76.6224946
21
-54.9677646
0
LINE
8
0
10
76.374417
20
-55.0165241
11
57.625583
21
-57.4834759
0
LINE
8
0
10
57.3775054
20
-57.5322354
11
39.9910134
21
-62.1076281
0
LINE
8
0
10
38.5
20
-64.0417772
11
38.5
21
-159.5
0
LINE
8
0
10
40.5
20
-161.5
11
61.2412468
21
-161.5
0
LINE
8
0
10
61.7502334
20
-161.4341491
11
80.3775054
21
-156.5322354
0
LINE
8
0
10
80.625583
20
-156.4834759
11
99.4659701
21
-154.0044776
0
LINE
8
0
10
99.5338591
20
-153.9943568
11
114.3367268
21
-151.5272122
0
LINE
8
0
10
114.6655248
20
-151.5
11
124.8924389
21
-151.5
0
LINE
8
0
10
126.5876774
20
-152.43879
11
130.3702996
21
-158.4813708
0
LINE
8
0
10
134.0579275
20
-157.5944721
11
135.5738321
21
-140.2676034
0
LINE
8
0
10
137.6773123
20
-138.4450025
11
153.5179879
21
-139.3262391
0
LINE
8
0
10
155.6214681
20
-137.5036382
11
157.2567191
21
-118.8126335
0
LINE
8
0
10
159.4234199
20
-116.9945555
11
179.6618914
21
-118.7651923
0
ARC
8
0
10
179.801463
20
-69.3
40
2
50
0.0419291
51
90
0
ARC
8
0
10
158.5
20
-65.3
40
2
50
180
51
270
0
ARC
8
0
10
154.5
20
-59.0417772
40
2
50
0
51
75.2564366
0
ARC
8
0
10
137.113508
20
-54.4663845
40
2
50
75.2564366
51
82.5041431
0
ARC
8
0
10
118.3689856
20
-52
40
2
50
82.5041431
51
90
0
ARC
8
0
10
95.7587532
20
-52
40
2
50
90
51
104.7435634
0
ARC
8
0
10
76.113508
20
-53.0336155
40
2
50
277.4958569
51
284.7435634
0
ARC
8
0
10
57.886492
20
-59.4663845
40
2
50
97.4958569
51
104.7435634
0
ARC
8
0
10
40.5
20
-64.0417772
40
2
50
104.7435634
51
180
0
ARC
8
0
10
40.5
20
-159.5
40
2
50
180
51
270
0
ARC
8
0
10
61.2412468
20
-159.5
40
2
50
270
51
284.7435634
0
ARC
8
0
10
80.886492
20
-158.4663845
40
2
50
97.4958569
51
104.7435634
0
ARC
8
0
10
99.2050611
20
-152.021569
40
2
50
277.4958569
51
279.4623231
0
ARC
8
0
10
114.6655248
20
-153.5
40
2
50
90
51
99.4623231
0
ARC
8
0
10
124.8924389
20
-153.5
40
2
50
32.0463418
51
90
0
ARC
8
0
10
132.0655381
20
-157.4201607
40
2
50
212.0463418
51
355.0000024
0
ARC
8
0
10
137.5662215
20
-140.4419148
40
2
50
86.8158444
51
175.0000024
0
ARC
8
0
10
153.6290786
20
-137.3293268
40
2
50
266.8158444
51
355.0000024
0
ARC
8
0
10
159.2491085
20
-118.9869449
40
2
50
85.0000024
51
175.0000024
0
ARC
8
0
10
179.8362028
20
-116.7728029
40
2
50
265.0000024
51
0.0419291
0
LINE
8
0
10
43
20
-157
11
57
21
-157
0
LINE
8
0
10
57
20
-157
11
57
21
-143
0
LINE
8
0
10
57
20
-143
11
43
21
-143
0
LINE
8
0
10
43
20
-143
11
43
21
-157
0
LINE
8
0
10
43
20
-138
11
57
21
-138
0
LINE
8
0
10
57
20
-138
11
57
21
-124
0
LINE
8
0
10
57
20
-124
11
43
21
-124
0
LINE
8
0
10
43
20
-124
11
43
21
-138
0
LINE
8
0
10
43
20
-119
11
57
21
-119
0
LINE
8
0
10
57
20
-119
11
57
21
-105
0
LINE
8
0
10
57
20
-105
11
43
21
-105
0
LINE
8
0
10
43
20
-105
11
43
21
-119
0
LINE
8
0
10
43
20
-100
11
57
21
-100
0
LINE
8
0
10
57
20
-100
11
57
21
-86
0
LINE
8
0
10
57
20
-86
11
43
21
-86
0
LINE
8
0
10
43
20
-86
11
43
21
-100
0
LINE
8
0
10
43
20
-81
11
57
21
-81
0
LINE
8
0
10
57
20
-81
11
57
21
-67
0
LINE
8
0
10
57
20
-67
11
43
21
-67
0
LINE
8
0
10
43
20
-67
11
43
21
-81
0
LINE
8
0
10
62
20
-152
11
76
21
-152
0
LINE
8
0
10
76
20
-152
11
76
21
-138
0
LINE
8
0
10
76
20
-138
11
62
21
-138
0
LINE
8
0
10
62
20
-138
11
62
21
-152
0
LINE
8
0
10
62
20
-133
11
76
21
-133
0
LINE
8
0
10
76
20
-133
11
76
21
-119
0
LINE
8
0
10
76
20
-119
11
62
21
-119
0
LINE
8
0
10
62
20
-119
11
62
21
-133
0
LINE
8
0
10
62
20
-114
11
76
21
-114
0
LINE
8
0
10
76
20
-114
11
76
21
-100
0
LINE
8
0
10
76
20
-100
11
62
21
-100
0
LINE
8
0
10
62
20
-100
11
62
21
-114
0
LINE
8
0
10
62
20
-95
11
76
21
-95
0
LINE
8
0
10
76
20
-95
11
76
21
-81
0
LINE
8
0
10
76
20
-81
11
62
21
-81
0
LINE
8
0
10
62
20
-81
11
62
21
-95
0
LINE
8
0
10
62
20
-76
11
76
21
-76
0
LINE
8
0
10
76
20
-76
11
76
21
-62
0
LINE
8
0
10
76
20
-62
11
62
21
-62
0
LINE
8
0
10
62
20
-62
11
62
21
-76
0
LINE
8
0
10
81
20
-149.5
11
95
21
-149.5
0
LINE
8
0
10
95
20
-149.5
11
95
21
-135.5
0
LINE
8
0
10
95
20
-135.5
11
81
21
-135.5
0
LINE
8
0
10
81
20
-135.5
11
81
21
-149.5
0
LINE
8
0
10
81
20
-130.5
11
95
21
-130.5
0
LINE
8
0
10
95
20
-130.5
11
95
21
-116.5
0
LINE
8
0
10
95
20
-116.5
11
81
21
-116.5
0
LINE
8
0
10
81
20
-116.5
11
81
21
-130.5
0
LINE
8
0
10
81
20
-111.5
11
95
21
-111.5
0
LINE
8
0
10
95
20
-111.5
11
95
21
-97.5
0
LINE
8
0
10
95
20
-97.5
11
81
21
-97.5
0
LINE
8
0
10
81
20
-97.5
11
81
21
-111.5
0
LINE
8
0
10
81
20
-92.5
11
95
21
-92.5
0
LINE
8
0
10
95
20
-92.5
11
95
21
-78.5
0
LINE
8
0
10
95
20
-78.5
11
81
21
-78.5
0
LINE
8
0
10
81
20
-78.5
11
81
21
-92.5
0
LINE
8
0
10
81
20
-73.5
11
95
21
-73.5
0
LINE
8
0
10
95
20
-73.5
11
95
21
-59.5
0
LINE
8
0
10
95
20
-59.5
11
81
21
-59.5
0
LINE
8
0
10
81
20
-59.5
11
81
21
-73.5
0
LINE
8
0
10
100
20
-144.5
11
114
21
-144.5
0
LINE
8
0
10
114
20
-144.5
11
114
21
-130.5
0
LINE
8
0
10
114
20
-130.5
11
100
21
-130.5
0
LINE
8
0
10
100
20
-130.5
11
100
21
-144.5
0
LINE
8
0
10
100
20
-125.5
11
114
21
-125.5
0
LINE
8
0
10
114
20
-125.5
11
114
21
-111.5
0
LINE
8
0
10
114
20
-111.5
11
100
21
-111.5
0
LINE
8
0
10
100
20
-111.5
11
100
21
-125.5
0
LINE
8
0
10
100
20
-106.5
11
114
21
-106.5
0
LINE
8
0
10
114
20
-106.5
11
114
21
-92.5
0
LINE
8
0
10
114
20
-92.5
11
100
21
-92.5
0
LINE
8
0
10
100
20
-92.5
11
100
21
-106.5
0
LINE
8
0
10
100
20
-87.5
11
114
21
-87.5
0
LINE
8
0
10
114
20
-87.5
11
114
21
-73.5
0
LINE
8
0
10
114
20
-73.5
11
100
21
-73.5
0
LINE
8
0
10
100
20
-73.5
11
100
21
-87.5
0
LINE
8
0
10
100
20
-68.5
11
114
21
-68.5
0
LINE
8
0
10
114
20
-68.5
11
114
21
-54.5
0
LINE
8
0
10
114
20
-54.5
11
100
21
-54.5
0
LINE
8
0
10
100
20
-54.5
11
100
21
-68.5
0
LINE
8
0
10
119
20
-147
11
133
21
-147
0
LINE
8
0
10
133
20
-147
11
133
21
-133
0
LINE
8
0
10
133
20
-133
11
119
21
-133
0
LINE
8
0
10
119
20
-133
11
119
21
-147
0
LINE
8
0
10
119
20
-128
11
133
21
-128
0
LINE
8
0
10
133
20
-128
11
133
21
-114
0
LINE
8
0
10
133
20
-114
11
119
21
-114
0
LINE
8
0
10
119
20
-114
11
119
21
-128
0
LINE
8
0
10
119
20
-109
11
133
21
-109
0
LINE
8
0
10
133
20
-109
11
133
21
-95
0
LINE
8
0
10
133
20
-95
11
119
21
-95
0
LINE
8
0
10
119
20
-95
11
119
21
-109
0
LINE
8
0
10
119
20
-90
11
133
21
-90
0
LINE
8
0
10
133
20
-90
11
133
21
-76
0
LINE
8
0
10
133
20
-76
11
119
21
-76
0
LINE
8
0
10
119
20
-76
11
119
21
-90
0
LINE
8
0
10
119
20
-71
11
133
21
-71
0
LINE
8
0
10
133
20
-71
11
133
21
-57
0
LINE
8
0
10
133
20
-57
11
119
21
-57
0
LINE
8
0
10
119
20
-57
11
119
21
-71
0
LINE
8
0
10
138
20
-133
11
152
21
-133
0
LINE
8
0
10
152
20
-133
11
152
21
-119
0
LINE
8
0
10
152
20
-119
11
138
21
-119
0
LINE
8
0
10
138
20
-119
11
138
21
-133
0
LINE
8
0
10
138
20
-114
11
152
21
-114
0
LINE
8
0
10
152
20
-114
11
152
21
-100
0
LINE
8
0
10
152
20
-100
11
138
21
-100
0
LINE
8
0
10
138
20
-100
11
138
21
-114
0
LINE
8
0
10
138
20
-95
11
152
21
-95
0
LINE
8
0
10
152
20
-95
11
152
21
-81
0
LINE
8
0
10
152
20
-81
11
138
21
-81
0
LINE
8
0
10
138
20
-81
11
138
21
-95
0
LINE
8
0
10
138
20
-76
11
152
21
-76
0
LINE
8
0
10
152
20
-76
11
152
21
-62
0
LINE
8
0
10
152
20
-62
11
138
21
-62
0
LINE
8
0
10
138
20
-62
11
138
21
-76
0
ENDSEC
0
EOF