0
SECTION
2
HEADER
9
$INSUNITS
70
4
0
ENDSEC
0
SECTION
2
TABLES
0
TABLE
2
LTYPE
0
LTYPE
72
65
70
64
2
CONTINUOUS
3
______
73
0
40
0
0
ENDTAB
0
TABLE
2
LAYER
0
ENDTAB
0
ENDSEC
0
SECTION
2
ENTITIES
0
LINE
8
0
10
156.5
20
-65.3
11
156.5
21
-59.0417772
0
LINE
8
0
10
155.0089866
20
-57.1076281
11
137.6224946
21
-52.5322354
0
LINE
8
0
10
137.374417
20
-52.4834759
11
118.6298946
21
-50.0170914
0
LINE
8
0
10
118.3689856
20
-50
11
95.7587532
21
-50
0
LINE
8
0
10
95.2497666
20
-50.0658509
11
76.6224946
21
-54.9677646
0
LINE
8
0
10
76.374417
20
-55.0165241
11
57.625583
21
-57.4834759
0
LINE
8
0
10
57.3775054
20
-57.5322354
11
39.9910134
21
-62.1076281
0
LINE
8
0
10
38.5
20
-64.0417772
11
38.5
21
-159.5
0
LINE
8
0
10
40.5
20
-161.5
11
61.2412468
21
-161.5
0
LINE
8
0
10
61.7502334
20
-161.4341491
11
80.3775054
21
-156.5322354
0
LINE
8
0
10
80.625583
20
-156.4834759
11
99.4659701
21
-154.0044776
0
LINE
8
0
10
99.5338591
20
-153.9943568
11
114.3367268
21
-151.5272122
0
LINE
8
0
10
114.6655248
20
-151.5
11
124.8145745
21
-151.5
0
LINE
8
0
10
126.56906
20
-152.539906
11
132.0276259
21
-162.5149443
0
LINE
8
0
10
133.6078001
20
-163.5472398
11
155.2553803
21
-165.4411577
0
LINE
8
0
10
155.6451813
20
-165.5147514
11
169.2104545
21
-169.5028465
0
LINE
8
0
10
169.4915787
20
-169.6090267
11
188.3874802
21
-178.4203303
0
LINE
8
0
10
191.0453323
20
-177.4529514
11
199.244317
21
-159.8701722
0
LINE
8
0
10
198.6546482
20
-157.4424056
11
182.6080424
21
-145.0419157
0
LINE
8
0
10
181.8309894
20
-143.4601995
11
181.8008135
21
-69.2991862
0
LINE
8
0
10
179.8008137
20
-67.3
11
158.5
21
-67.3
0
ARC
8
0
10
154.5
20
-59.0417772
40
2
50
0
51
75.2564366
0
ARC
8
0
10
137.113508
20
-54.4663845
40
2
50
75.2564366
51
82.5041431
0
ARC
8
0
10
118.3689856
20
-52
40
2
50
82.5041431
51
90
0
ARC
8
0
10
95.7587532
20
-52
40
2
50
90
51
104.7435634
0
ARC
8
0
10
76.113508
20
-53.0336155
40
2
50
277.4958569
51
284.7435634
0
ARC
8
0
10
57.886492
20
-59.4663845
40
2
50
97.4958569
51
104.7435634
0
ARC
8
0
10
40.5
20
-64.0417772
40
2
50
104.7435634
51
180
0
ARC
8
0
10
40.5
20
-159.5
40
2
50
180
51
270
0
ARC
8
0
10
61.2412468
20
-159.5
40
2
50
270
51
284.7435634
0
ARC
8
0
10
80.886492
20
-158.4663845
40
2
50
97.4958569
51
104.7435634
0
ARC
8
0
10
99.2050611
20
-152.021569
40
2
50
277.4958569
51
279.4623231
0
ARC
8
0
10
114.6655248
20
-153.5
40
2
50
90
51
99.4623231
0
ARC
8
0
10
124.8145745
20
-153.5
40
2
50
28.6884709
51
90
0
ARC
8
0
10
133.7821115
20
-161.5548504
40
2
50
208.6884709
51
265.0000024
0
ARC
8
0
10
155.0810689
20
-167.4335471
40
2
50
73.6170367
51
85.0000024
0
ARC
8
0
10
168.6463421
20
-171.4216423
40
2
50
64.9999983
51
73.6170367
0
ARC
8
0
10
189.2327168
20
-176.6077148
40
2
50
244.9999983
51
334.9999983
0
ARC
8
0
10
197.4317014
20
-159.0249356
40
2
50
334.9999983
51
52.3038846
0
ARC
8
0
10
183.8309892
20
-143.4593857
40
2
50
180.0233137
51
232.3038846
0
ARC
8
0
10
179.8008137
20
-69.3
40
2
50
0.0233137
51
90
0
ARC
8
0
10
158.5
20
-65.3
40
2
50
180
51
270
0
LINE
8
0
10
42.5
20
-157.5
11
57.5
21
-157.5
0
LINE
8
0
10
57.5
20
-157.5
11
57.5
21
-142.5
0
LINE
8
0
10
57.5
20
-142.5
11
42.5
21
-142.5
0
LINE
8
0
10
42.5
20
-142.5
11
42.5
21
-157.5
0
LINE
8
0
10
42.5
20
-138.5
11
57.5
21
-138.5
0
LINE
8
0
10
57.5
20
-138.5
11
57.5
21
-123.5
0
LINE
8
0
10
57.5
20
-123.5
11
42.5
21
-123.5
0
LINE
8
0
10
42.5
20
-123.5
11
42.5
21
-138.5
0
LINE
8
0
10
42.5
20
-119.5
11
57.5
21
-119.5
0
LINE
8
0
10
57.5
20
-119.5
11
57.5
21
-104.5
0
LINE
8
0
10
57.5
20
-104.5
11
42.5
21
-104.5
0
LINE
8
0
10
42.5
20
-104.5
11
42.5
21
-119.5
0
LINE
8
0
10
42.5
20
-100.5
11
57.5
21
-100.5
0
LINE
8
0
10
57.5
20
-100.5
11
57.5
21
-85.5
0
LINE
8
0
10
57.5
20
-85.5
11
42.5
21
-85.5
0
LINE
8
0
10
42.5
20
-85.5
11
42.5
21
-100.5
0
LINE
8
0
10
42.5
20
-81.5
11
57.5
21
-81.5
0
LINE
8
0
10
57.5
20
-81.5
11
57.5
21
-66.5
0
LINE
8
0
10
57.5
20
-66.5
11
42.5
21
-66.5
0
LINE
8
0
10
42.5
20
-66.5
11
42.5
21
-81.5
0
LINE
8
0
10
61.5
20
-152.5
11
76.5
21
-152.5
0
LINE
8
0
10
76.5
20
-152.5
11
76.5
21
-137.5
0
LINE
8
0
10
76.5
20
-137.5
11
61.5
21
-137.5
0
LINE
8
0
10
61.5
20
-137.5
11
61.5
21
-152.5
0
LINE
8
0
10
61.5
20
-133.5
11
76.5
21
-133.5
0
LINE
8
0
10
76.5
20
-133.5
11
76.5
21
-118.5
0
LINE
8
0
10
76.5
20
-118.5
11
61.5
21
-118.5
0
LINE
8
0
10
61.5
20
-118.5
11
61.5
21
-133.5
0
LINE
8
0
10
61.5
20
-114.5
11
76.5
21
-114.5
0
LINE
8
0
10
76.5
20
-114.5
11
76.5
21
-99.5
0
LINE
8
0
10
76.5
20
-99.5
11
61.5
21
-99.5
0
LINE
8
0
10
61.5
20
-99.5
11
61.5
21
-114.5
0
LINE
8
0
10
61.5
20
-95.5
11
76.5
21
-95.5
0
LINE
8
0
10
76.5
20
-95.5
11
76.5
21
-80.5
0
LINE
8
0
10
76.5
20
-80.5
11
61.5
21
-80.5
0
LINE
8
0
10
61.5
20
-80.5
11
61.5
21
-95.5
0
LINE
8
0
10
61.5
20
-76.5
11
76.5
21
-76.5
0
LINE
8
0
10
76.5
20
-76.5
11
76.5
21
-61.5
0
LINE
8
0
10
76.5
20
-61.5
11
61.5
21
-61.5
0
LINE
8
0
10
61.5
20
-61.5
11
61.5
21
-76.5
0
LINE
8
0
10
80.5
20
-150
11
95.5
21
-150
0
LINE
8
0
10
95.5
20
-150
11
95.5
21
-135
0
LINE
8
0
10
95.5
20
-135
11
80.5
21
-135
0
LINE
8
0
10
80.5
20
-135
11
80.5
21
-150
0
LINE
8
0
10
80.5
20
-131
11
95.5
21
-131
0
LINE
8
0
10
95.5
20
-131
11
95.5
21
-116
0
LINE
8
0
10
95.5
20
-116
11
80.5
21
-116
0
LINE
8
0
10
80.5
20
-116
11
80.5
21
-131
0
LINE
8
0
10
80.5
20
-112
11
95.5
21
-112
0
LINE
8
0
10
95.5
20
-112
11
95.5
21
-97
0
LINE
8
0
10
95.5
20
-97
11
80.5
21
-97
0
LINE
8
0
10
80.5
20
-97
11
80.5
21
-112
0
LINE
8
0
10
80.5
20
-93
11
95.5
21
-93
0
LINE
8
0
10
95.5
20
-93
11
95.5
21
-78
0
LINE
8
0
10
95.5
20
-78
11
80.5
21
-78
0
LINE
8
0
10
80.5
20
-78
11
80.5
21
-93
0
LINE
8
0
10
80.5
20
-74
11
95.5
21
-74
0
LINE
8
0
10
95.5
20
-74
11
95.5
21
-59
0
LINE
8
0
10
95.5
20
-59
11
80.5
21
-59
0
LINE
8
0
10
80.5
20
-59
11
80.5
21
-74
0
LINE
8
0
10
99.5
20
-145
11
114.5
21
-145
0
LINE
8
0
10
114.5
20
-145
11
114.5
21
-130
0
LINE
8
0
10
114.5
20
-130
11
99.5
21
-130
0
LINE
8
0
10
99.5
20
-130
11
99.5
21
-145
0
LINE
8
0
10
99.5
20
-126
11
114.5
21
-126
0
LINE
8
0
10
114.5
20
-126
11
114.5
21
-111
0
LINE
8
0
10
114.5
20
-111
11
99.5
21
-111
0
LINE
8
0
10
99.5
20
-111
11
99.5
21
-126
0
LINE
8
0
10
99.5
20
-107
11
114.5
21
-107
0
LINE
8
0
10
114.5
20
-107
11
114.5
21
-92
0
LINE
8
0
10
114.5
20
-92
11
99.5
21
-92
0
LINE
8
0
10
99.5
20
-92
11
99.5
21
-107
0
LINE
8
0
10
99.5
20
-88
11
114.5
21
-88
0
LINE
8
0
10
114.5
20
-88
11
114.5
21
-73
0
LINE
8
0
10
114.5
20
-73
11
99.5
21
-73
0
LINE
8
0
10
99.5
20
-73
11
99.5
21
-88
0
LINE
8
0
10
99.5
20
-69
11
114.5
21
-69
0
LINE
8
0
10
114.5
20
-69
11
114.5
21
-54
0
LINE
8
0
10
114.5
20
-54
11
99.5
21
-54
0
LINE
8
0
10
99.5
20
-54
11
99.5
21
-69
0
LINE
8
0
10
118.5
20
-147.5
11
133.5
21
-147.5
0
LINE
8
0
10
133.5
20
-147.5
11
133.5
21
-132.5
0
LINE
8
0
10
133.5
20
-132.5
11
118.5
21
-132.5
0
LINE
8
0
10
118.5
20
-132.5
11
118.5
21
-147.5
0
LINE
8
0
10
118.5
20
-128.5
11
133.5
21
-128.5
0
LINE
8
0
10
133.5
20
-128.5
11
133.5
21
-113.5
0
LINE
8
0
10
133.5
20
-113.5
11
118.5
21
-113.5
0
LINE
8
0
10
118.5
20
-113.5
11
118.5
21
-128.5
0
LINE
8
0
10
118.5
20
-109.5
11
133.5
21
-109.5
0
LINE
8
0
10
133.5
20
-109.5
11
133.5
21
-94.5
0
LINE
8
0
10
133.5
20
-94.5
11
118.5
21
-94.5
0
LINE
8
0
10
118.5
20
-94.5
11
118.5
21
-109.5
0
LINE
8
0
10
118.5
20
-90.5
11
133.5
21
-90.5
0
LINE
8
0
10
133.5
20
-90.5
11
133.5
21
-75.5
0
LINE
8
0
10
133.5
20
-75.5
11
118.5
21
-75.5
0
LINE
8
0
10
118.5
20
-75.5
11
118.5
21
-90.5
0
LINE
8
0
10
118.5
20
-71.5
11
133.5
21
-71.5
0
LINE
8
0
10
133.5
20
-71.5
11
133.5
21
-56.5
0
LINE
8
0
10
133.5
20
-56.5
11
118.5
21
-56.5
0
LINE
8
0
10
118.5
20
-56.5
11
118.5
21
-71.5
0
LINE
8
0
10
137.5
20
-133.5
11
152.5
21
-133.5
0
LINE
8
0
10
152.5
20
-133.5
11
152.5
21
-118.5
0
LINE
8
0
10
152.5
20
-118.5
11
137.5
21
-118.5
0
LINE
8
0
10
137.5
20
-118.5
11
137.5
21
-133.5
0
LINE
8
0
10
137.5
20
-114.5
11
152.5
21
-114.5
0
LINE
8
0
10
152.5
20
-114.5
11
152.5
21
-99.5
0
LINE
8
0
10
152.5
20
-99.5
11
137.5
21
-99.5
0
LINE
8
0
10
137.5
20
-99.5
11
137.5
21
-114.5
0
LINE
8
0
10
137.5
20
-95.5
11
152.5
21
-95.5
0
LINE
8
0
10
152.5
20
-95.5
11
152.5
21
-80.5
0
LINE
8
0
10
152.5
20
-80.5
11
137.5
21
-80.5
0
LINE
8
0
10
137.5
20
-80.5
11
137.5
21
-95.5
0
LINE
8
0
10
137.5
20
-76.5
11
152.5
21
-76.5
0
LINE
8
0
10
152.5
20
-76.5
11
152.5
21
-61.5
0
LINE
8
0
10
152.5
20
-61.5
11
137.5
21
-61.5
0
LINE
8
0
10
137.5
20
-61.5
11
137.5
21
-76.5
0
LINE
8
0
10
161.5779282
20
-138.2632672
11
176.5208487
21
-139.5706033
0
LINE
8
0
10
176.5208487
20
-139.5706033
11
177.8281848
21
-124.6276828
0
LINE
8
0
10
177.8281848
20
-124.6276828
11
162.8852643
21
-123.3203467
0
LINE
8
0
10
162.8852643
20
-123.3203467
11
161.5779282
21
-138.2632672
0
LINE
8
0
10
136.8748717
20
-159.8177922
11
151.8177922
21
-161.1251283
0
LINE
8
0
10
151.8177922
20
-161.1251283
11
153.1251283
21
-146.1822078
0
LINE
8
0
10
153.1251283
20
-146.1822078
11
138.1822078
21
-144.8748717
0
LINE
8
0
10
138.1822078
20
-144.8748717
11
136.8748717
21
-159.8177922
0
LINE
8
0
10
157.4504216
20
-157.5791206
11
171.939309
21
-161.4614062
0
LINE
8
0
10
171.939309
20
-161.4614062
11
175.8215946
21
-146.9725188
0
LINE
8
0
10
175.8215946
20
-146.9725188
11
161.3327072
21
-143.0902332
0
LINE
8
0
10
161.3327072
20
-143.0902332
11
157.4504216
21
-157.5791206
0
LINE
8
0
10
174.6707209
20
-167.6105887
11
188.2653377
21
-173.9498627
0
LINE
8
0
10
188.2653377
20
-173.9498627
11
194.6046117
21
-160.3552459
0
LINE
8
0
10
194.6046117
20
-160.3552459
11
181.0099949
21
-154.0159719
0
LINE
8
0
10
181.0099949
20
-154.0159719
11
174.6707209
21
-167.6105887
0
ENDSEC
0
EOF