0
SECTION
2
HEADER
9
$INSUNITS
70
4
0
ENDSEC
0
SECTION
2
TABLES
0
TABLE
2
LTYPE
0
LTYPE
72
65
70
64
2
CONTINUOUS
3
______
73
0
40
0
0
ENDTAB
0
TABLE
2
LAYER
0
ENDTAB
0
ENDSEC
0
SECTION
2
ENTITIES
0
LINE
8
0
10
38.5
20
-161.5
11
61.5
21
-161.5
0
LINE
8
0
10
61.5
20
-161.5
11
61.5
21
-156.5
0
LINE
8
0
10
38.5
20
-161.5
11
38.5
21
-62.5
0
LINE
8
0
10
57.5
20
-62.5
11
38.5
21
-62.5
0
LINE
8
0
10
61.5
20
-156.5
11
80.5
21
-156.5
0
LINE
8
0
10
80.5
20
-156.5
11
80.5
21
-154
0
LINE
8
0
10
76.5
20
-57.5
11
57.5
21
-57.5
0
LINE
8
0
10
57.5
20
-57.5
11
57.5
21
-62.5
0
LINE
8
0
10
80.5
20
-154
11
99.5
21
-154
0
LINE
8
0
10
99.5
20
-154
11
99.5
21
-149
0
LINE
8
0
10
95.5
20
-55
11
76.5
21
-55
0
LINE
8
0
10
76.5
20
-55
11
76.5
21
-57.5
0
LINE
8
0
10
99.5
20
-149
11
114.5
21
-149
0
LINE
8
0
10
118.5
20
-52.5
11
118.5
21
-50
0
LINE
8
0
10
118.5
20
-50
11
95.5
21
-50
0
LINE
8
0
10
95.5
20
-50
11
95.5
21
-55
0
LINE
8
0
10
114.5
20
-151.5
11
133.5873048
21
-151.5
0
LINE
8
0
10
137.5
20
-140.7999069
11
137.5
21
-137.5
0
LINE
8
0
10
114.5
20
-149
11
114.5
21
-151.5
0
LINE
8
0
10
137.5
20
-57.5
11
137.5
21
-52.5
0
LINE
8
0
10
137.5
20
-52.5
11
118.5
21
-52.5
0
LINE
8
0
10
137.5
20
-137.5
11
156.5
21
-137.5
0
LINE
8
0
10
156.5
20
-137.5
11
156.5
21
-57.5
0
LINE
8
0
10
156.5
20
-57.5
11
137.5
21
-57.5
0
LINE
8
0
10
157.2445264
20
-141.899423
11
157.5045828
21
-141.922175
0
LINE
8
0
10
179.6633864
20
-143.8608191
11
180.1570045
21
-143.9040051
0
LINE
8
0
10
180.1570045
20
-143.9040051
11
182.1615866
21
-120.991527
0
LINE
8
0
10
182.1615866
20
-120.991527
11
159.2491085
21
-118.9869449
0
LINE
8
0
10
159.2491085
20
-118.9869449
11
157.2445264
21
-141.899423
0
LINE
8
0
10
132.5414699
20
-163.453948
11
155.453948
21
-165.4585301
0
LINE
8
0
10
155.453948
20
-165.4585301
11
155.8192462
21
-161.2831532
0
LINE
8
0
10
157.3401896
20
-142.5356985
11
137.5
21
-140.7999069
0
LINE
8
0
10
133.5873048
20
-151.5
11
132.5414699
21
-163.453948
0
LINE
8
0
10
155.8192462
20
-161.2831532
11
171.2764174
21
-165.4248897
0
LINE
8
0
10
179.4526001
20
-148.8762351
11
180.7205741
21
-144.1440917
0
LINE
8
0
10
180.7205741
20
-144.1440917
11
179.6633864
21
-143.8608191
0
LINE
8
0
10
157.5045828
20
-141.922175
11
157.3401896
21
-142.5356985
0
LINE
8
0
10
169.3550167
20
-169.5453468
11
190.2000958
21
-179.2655669
0
LINE
8
0
10
190.2000958
20
-179.2655669
11
199.9203159
21
-158.4204878
0
LINE
8
0
10
199.9203159
20
-158.4204878
11
179.4526001
21
-148.8762351
0
LINE
8
0
10
171.2764174
20
-165.4248897
11
169.3550167
21
-169.5453468
0
ENDSEC
0
EOF