0
SECTION
2
HEADER
9
$INSUNITS
70
4
0
ENDSEC
0
SECTION
2
TABLES
0
TABLE
2
LTYPE
0
LTYPE
72
65
70
64
2
CONTINUOUS
3
______
73
0
40
0
0
ENDTAB
0
TABLE
2
LAYER
0
ENDTAB
0
ENDSEC
0
SECTION
2
ENTITIES
0
LINE
8
0
10
169.4915787
20
-169.6090267
11
188.3874802
21
-178.4203303
0
LINE
8
0
10
191.0453323
20
-177.4529514
11
199.2313688
21
-159.8979397
0
LINE
8
0
10
198.6121408
20
-157.4477651
11
181.5906793
21
-144.7910778
0
LINE
8
0
10
180.7879295
20
-143.0619004
11
182.040428
21
-122.9381667
0
LINE
8
0
10
180.218602
20
-120.8215379
11
161.2414978
21
-119.1612564
0
LINE
8
0
10
159.074797
20
-120.9793344
11
157.4398044
21
-139.6673863
0
LINE
8
0
10
155.3332734
20
-141.4898152
11
138.5019879
21
-140.5276724
0
LINE
8
0
10
136.3954569
20
-142.3501013
11
134.7081708
21
-161.6358702
0
LINE
8
0
10
136.5262488
20
-163.802571
11
155.2553803
21
-165.4411577
0
LINE
8
0
10
155.6451813
20
-165.5147514
11
169.2104545
21
-169.5028465
0
ARC
8
0
10
189.2327168
20
-176.6077148
40
2
50
244.9999983
51
334.9999983
0
ARC
8
0
10
197.4187532
20
-159.0527031
40
2
50
334.9999983
51
53.366526
0
ARC
8
0
10
182.7840669
20
-143.1861398
40
2
50
176.4385103
51
233.366526
0
ARC
8
0
10
180.0442906
20
-122.8139273
40
2
50
356.4385103
51
85.0000024
0
ARC
8
0
10
161.0671864
20
-121.1536458
40
2
50
85.0000024
51
175.0000024
0
ARC
8
0
10
155.447415
20
-139.4930749
40
2
50
266.7283062
51
355.0000024
0
ARC
8
0
10
138.3878463
20
-142.5244127
40
2
50
86.7283062
51
175.0000024
0
ARC
8
0
10
136.7005602
20
-161.8101816
40
2
50
175.0000024
51
265.0000024
0
ARC
8
0
10
155.0810689
20
-167.4335471
40
2
50
73.6170367
51
85.0000024
0
ARC
8
0
10
168.6463421
20
-171.4216423
40
2
50
64.9999983
51
73.6170367
0
LINE
8
0
10
162.1196034
20
-137.8087477
11
176.0663292
21
-139.0289281
0
LINE
8
0
10
176.0663292
20
-139.0289281
11
177.2865096
21
-125.0822023
0
LINE
8
0
10
177.2865096
20
-125.0822023
11
163.3397838
21
-123.8620219
0
LINE
8
0
10
163.3397838
20
-123.8620219
11
162.1196034
21
-137.8087477
0
LINE
8
0
10
137.4165469
20
-159.3632727
11
151.3632727
21
-160.5834531
0
LINE
8
0
10
151.3632727
20
-160.5834531
11
152.5834531
21
-146.6367273
0
LINE
8
0
10
152.5834531
20
-146.6367273
11
138.6367273
21
-145.4165469
0
LINE
8
0
10
138.6367273
20
-145.4165469
11
137.4165469
21
-159.3632727
0
LINE
8
0
10
158.062794
20
-157.2255672
11
171.5857556
21
-160.8490338
0
LINE
8
0
10
171.5857556
20
-160.8490338
11
175.2092222
21
-147.3260722
0
LINE
8
0
10
175.2092222
20
-147.3260722
11
161.6862606
21
-143.7026056
0
LINE
8
0
10
161.6862606
20
-143.7026056
11
158.062794
21
-157.2255672
0
LINE
8
0
10
175.335184
20
-167.368744
11
188.023493
21
-173.2853996
0
LINE
8
0
10
188.023493
20
-173.2853996
11
193.9401486
21
-160.5970906
0
LINE
8
0
10
193.9401486
20
-160.5970906
11
181.2518396
21
-154.680435
0
LINE
8
0
10
181.2518396
20
-154.680435
11
175.335184
21
-167.368744
0
ENDSEC
0
EOF